<svg width="1129" height="179" viewBox="0 0 1129 179" fill="none" xmlns="http://www.w3.org/2000/svg">
<rect width="1129" height="179" fill="white"/>
<path d="M85.28 152.4C74.8267 152.4 66.52 149.833 60.36 144.7C54.2 139.473 51.0733 132.427 50.98 123.56H68.48C68.48 127.76 69.9733 131.073 72.96 133.5C76.04 135.927 80.1933 137.14 85.42 137.14C90.46 137.14 94.38 135.973 97.18 133.64C100.073 131.213 101.52 127.947 101.52 123.84C101.52 120.387 100.493 117.4 98.44 114.88C96.3867 112.36 93.54 110.587 89.9 109.56L78.14 106.34C70.2067 104.287 64.0467 100.6 59.66 95.28C55.2733 89.96 53.08 83.52 53.08 75.96C53.08 67.28 55.9733 60.3733 61.76 55.24C67.5467 50.0133 75.34 47.4 85.14 47.4C94.94 47.4 102.733 49.9667 108.52 55.1C114.4 60.14 117.387 66.9533 117.48 75.54H99.98C99.98 71.5267 98.6733 68.4 96.06 66.16C93.4467 63.8267 89.76 62.66 85 62.66C80.4267 62.66 76.88 63.7333 74.36 65.88C71.84 68.0267 70.58 71.06 70.58 74.98C70.58 78.5267 71.56 81.56 73.52 84.08C75.48 86.6 78.2333 88.3267 81.78 89.26L93.96 92.62C101.987 94.7667 108.147 98.4533 112.44 103.68C116.827 108.907 119.02 115.393 119.02 123.14C119.02 128.927 117.62 134.06 114.82 138.54C112.02 142.927 108.053 146.333 102.92 148.76C97.88 151.187 92 152.4 85.28 152.4ZM279.545 152.4C269.745 152.4 261.952 149.693 256.165 144.28C250.472 138.773 247.625 131.4 247.625 122.16V77.64C247.625 68.4 250.472 61.0733 256.165 55.66C261.952 50.1533 269.745 47.4 279.545 47.4C289.345 47.4 297.092 50.1533 302.785 55.66C308.572 61.0733 311.465 68.3533 311.465 77.5V122.16C311.465 131.4 308.572 138.773 302.785 144.28C297.092 149.693 289.345 152.4 279.545 152.4ZM279.545 137.14C284.305 137.14 287.899 135.88 290.325 133.36C292.752 130.747 293.965 127.013 293.965 122.16V77.64C293.965 72.7867 292.752 69.1 290.325 66.58C287.899 63.9667 284.305 62.66 279.545 62.66C274.785 62.66 271.192 63.9667 268.765 66.58C266.339 69.1 265.125 72.7867 265.125 77.64V122.16C265.125 127.013 266.339 130.747 268.765 133.36C271.285 135.88 274.879 137.14 279.545 137.14ZM442.731 151V48.8H475.071C481.791 48.8 487.671 50.06 492.711 52.58C497.844 55.1 501.764 58.6467 504.471 63.22C507.271 67.7933 508.671 73.1133 508.671 79.18C508.671 85.9 506.991 91.8267 503.631 96.96C500.271 102.093 495.651 105.733 489.771 107.88L510.071 151H490.471L472.691 110.4H460.231V151H442.731ZM475.071 95.14C479.924 95.14 483.751 93.7867 486.551 91.08C489.444 88.28 490.891 84.5 490.891 79.74C490.891 74.8867 489.444 71.06 486.551 68.26C483.751 65.46 479.924 64.06 475.071 64.06H460.231V95.14H475.071ZM677.456 151H659.816V65.04H633.076V48.8H704.196V65.04H677.456V151ZM894.821 151H833.501V48.8H894.821V63.92H850.721V90.66H889.921V105.78H850.721V135.88H894.821V151Z" fill="black"/>
<rect x="997" y="76" width="29" height="75" fill="#219653"/>
<rect x="1026" y="76" width="29" height="59" transform="rotate(-90 1026 76)" fill="#219653"/>
<g filter="url(#filter0_d)">
<path d="M1026 47L997 76H1026V47Z" fill="#27AE60"/>
</g>
<defs>
<filter id="filter0_d" x="997" y="47" width="37" height="37" filterUnits="userSpaceOnUse" color-interpolation-filters="sRGB">
<feFlood flood-opacity="0" result="BackgroundImageFix"/>
<feColorMatrix in="SourceAlpha" type="matrix" values="0 0 0 0 0 0 0 0 0 0 0 0 0 0 0 0 0 0 127 0"/>
<feOffset dx="4" dy="4"/>
<feGaussianBlur stdDeviation="2"/>
<feColorMatrix type="matrix" values="0 0 0 0 0 0 0 0 0 0 0 0 0 0 0 0 0 0 0.25 0"/>
<feBlend mode="normal" in2="BackgroundImageFix" result="effect1_dropShadow"/>
<feBlend mode="normal" in="SourceGraphic" in2="effect1_dropShadow" result="shape"/>
</filter>
</defs>
</svg>
